<?xml version="1.0" encoding="iso-8859-1"?>
<!-- Generator: Adobe Illustrator 16.0.0, SVG Export Plug-In . SVG Version: 6.00 Build 0)  -->
<!DOCTYPE svg PUBLIC "-//W3C//DTD SVG 1.1//EN" "http://www.w3.org/Graphics/SVG/1.1/DTD/svg11.dtd">
<svg version="1.1" xmlns="http://www.w3.org/2000/svg" xmlns:xlink="http://www.w3.org/1999/xlink" x="0px" y="0px" width="55px"
	 height="40px" viewBox="0 0 55 40" style="enable-background:new 0 0 55 40;" xml:space="preserve">
<g id="Layer_1" style="display:none;">
	<g style="display:inline;">
		<g id="H5xSvF_3_">
			<g>
				<g>
					<path style="fill:#FFFFFF;" d="M27.549,9.849l1.754,1.351c3.919,3.019,7.624,5.872,11.374,8.824
						c0.038,0.086,0.078,0.236,0.079,0.332c0.022,2.666,0.023,5.331,0.024,7.995c0.001,2.484,0.002,4.969,0.021,7.453
						c-1.149-0.013-2.299-0.02-3.448-0.02c-1.074,0-2.147,0.006-3.239,0.02c0.013-1.319,0.01-2.639,0.006-3.957
						c-0.006-1.741-0.011-3.54,0.026-5.298c0.016-0.724-0.053-1.776-0.822-2.563c-0.56-0.571-1.321-0.85-2.329-0.85
						c-0.078,0-0.158,0.002-0.242,0.005c-1.08,0.043-2.152,0.064-3.188,0.064c-1.042,0-2.077-0.022-3.075-0.065
						c-0.106-0.004-0.208-0.007-0.306-0.007c-0.002,0-0.003,0-0.005,0c-0.393,0-1.564,0.005-2.406,0.871
						c-0.783,0.805-0.845,1.873-0.824,2.605c0.046,1.63,0.038,3.302,0.03,4.919c-0.007,1.404-0.015,2.854,0.013,4.292
						c-1.217-0.028-2.402-0.043-3.525-0.043c-1.083,0-2.151,0.014-3.174,0.04c0.025-2.686,0.025-5.41,0.025-8.046
						c0-2.428,0-4.855,0.019-7.283c0.001-0.165,0.029-0.331,0.058-0.436c3.707-2.921,7.524-5.863,11.217-8.708L27.549,9.849
						 M27.549,7.733c-4.838,3.733-9.625,7.399-14.358,11.132c-0.375,0.295-0.527,1.062-0.532,1.61
						c-0.039,5.125,0.004,10.25-0.044,15.375c-0.011,1.108,0.256,1.649,1.41,1.649c0.034,0,0.069,0,0.105-0.001
						c1.111-0.03,2.223-0.044,3.335-0.044c1.207,0,2.413,0.016,3.619,0.045C21.12,37.5,21.154,37.5,21.188,37.5
						c1.101,0,1.505-0.439,1.481-1.604c-0.064-3.111,0.043-6.225-0.045-9.335c-0.038-1.309,0.395-1.753,1.56-1.752
						c0.074,0,0.152,0.001,0.232,0.005c1.048,0.045,2.098,0.066,3.148,0.066c1.086,0,2.172-0.022,3.255-0.065
						c0.061-0.002,0.119-0.004,0.176-0.004c1.162,0,1.502,0.511,1.476,1.7c-0.066,3.172,0.002,6.346-0.035,9.519
						c-0.011,0.968,0.276,1.454,1.293,1.454c0.016,0,0.032,0,0.049,0c1.191-0.017,2.384-0.024,3.576-0.024
						c1.248,0,2.496,0.009,3.744,0.023c0.017,0,0.033,0,0.049,0c0.962,0,1.342-0.371,1.333-1.401
						c-0.042-5.247-0.002-10.493-0.047-15.74c-0.006-0.533-0.239-1.257-0.628-1.563C37.115,15.086,32.378,11.457,27.549,7.733
						L27.549,7.733z"/>
				</g>
				<path style="fill-rule:evenodd;clip-rule:evenodd;fill:#FFFFFF;" d="M9.528,19.155c-0.533-0.64-0.956-1.145-1.513-1.812
					c1.052-0.849,2.015-1.654,3.007-2.421c5.066-3.914,10.142-7.816,15.208-11.73c0.74-0.572,1.303-1.084,2.347-0.263
					c5.941,4.677,11.952,9.264,17.935,13.886c0.138,0.106,0.23,0.272,0.473,0.565c-0.415,0.531-0.846,1.081-1.419,1.816
					c-1.854-1.424-3.629-2.783-5.4-4.146c-3.768-2.903-7.559-5.775-11.281-8.734c-0.988-0.787-1.636-0.828-2.661-0.018
					c-4.976,3.93-10.023,7.771-15.048,11.64C10.697,18.305,10.204,18.656,9.528,19.155z"/>
			</g>
		</g>
	</g>
</g>
<g id="Layer_2" style="display:none;">
	<g style="display:inline;">
		
			<path style="fill-rule:evenodd;clip-rule:evenodd;fill:none;stroke:#FFFFFF;stroke-width:2.0454;stroke-linecap:square;stroke-linejoin:round;stroke-miterlimit:10;" d="
			M13.098,32.931c-2.933,0-5.868-0.053-8.799,0.025c-1.24,0.034-1.63-0.477-1.736-1.616c-0.407-4.386,1.184-7.863,4.884-10.175
			c3.763-2.352,7.715-2.259,11.418,0.157c3.666,2.394,5.092,5.958,4.676,10.295c-0.09,0.938-0.481,1.347-1.477,1.33
			C19.074,32.899,16.085,32.93,13.098,32.931z"/>
		<path style="fill-rule:evenodd;clip-rule:evenodd;fill:#FFFFFF;" d="M13.059,16.954c-2.702-0.003-4.973-2.245-4.983-4.925
			c-0.01-2.627,2.309-4.967,4.953-4.993c2.609-0.026,4.964,2.313,4.989,4.956C18.042,14.634,15.723,16.956,13.059,16.954z"/>
		<g>
			
				<path style="fill-rule:evenodd;clip-rule:evenodd;fill:none;stroke:#FFFFFF;stroke-width:2.0454;stroke-linecap:square;stroke-linejoin:round;stroke-miterlimit:10;" d="
				M41.996,32.931c-2.987,0-5.974-0.036-8.957,0.019c-1.072,0.021-1.476-0.42-1.564-1.428c-0.382-4.336,1.07-7.878,4.749-10.252
				c3.662-2.363,7.544-2.412,11.262-0.122c3.727,2.293,5.278,5.781,4.979,10.13c-0.084,1.209-0.526,1.729-1.844,1.685
				C47.747,32.862,44.869,32.931,41.996,32.931z"/>
			<path style="fill-rule:evenodd;clip-rule:evenodd;fill:#FFFFFF;" d="M41.97,16.954c-2.7-0.003-4.973-2.245-4.982-4.925
				c-0.01-2.627,2.311-4.967,4.951-4.993c2.61-0.026,4.967,2.313,4.991,4.956C46.953,14.634,44.635,16.956,41.97,16.954z"/>
		</g>
		<path style="fill-rule:evenodd;clip-rule:evenodd;fill:#4D4D4D;" d="M33.819,17.539c-1.568,2.127-3.006,4.08-4.537,6.158
			c-0.828-0.594-1.575-1.134-2.421-1.744c0.625-0.903,1.208-1.742,1.981-2.857c-1.544,0-2.791,0-4.038,0
			c-2.705,0-2.705,0-2.442-2.957c2.019,0,4.072,0,6.527,0c-0.81-1.176-1.382-2.006-2.026-2.939c0.759-0.601,1.482-1.173,2.348-1.858
			C30.771,13.441,32.271,15.457,33.819,17.539z"/>
	</g>
</g>
<g id="Layer_3" style="display:none;">
	<g style="display:inline;">
		<g id="E0NHA0_3_">
			<g>
				
					<path style="fill-rule:evenodd;clip-rule:evenodd;fill:none;stroke:#FFFFFF;stroke-width:1.1262;stroke-linecap:square;stroke-linejoin:round;stroke-miterlimit:10;" d="
					M31.801,30.755c0-3.882,0-7.76,0-11.655c2.572,0,5.134,0,7.713,0c0,3.878,0,7.755,0,11.655
					C36.952,30.755,34.385,30.755,31.801,30.755z"/>
				
					<path style="fill-rule:evenodd;clip-rule:evenodd;fill:none;stroke:#FFFFFF;stroke-width:1.1262;stroke-linecap:square;stroke-linejoin:round;stroke-miterlimit:10;" d="
					M29.186,19.1c0,3.894,0,7.769,0,11.661c-2.555,0-5.089,0-7.647,0c0-3.879,0-7.762,0-11.661C24.087,19.1,26.63,19.1,29.186,19.1z
					"/>
				
					<path style="fill-rule:evenodd;clip-rule:evenodd;fill:none;stroke:#FFFFFF;stroke-width:1.1262;stroke-linecap:square;stroke-linejoin:round;stroke-miterlimit:10;" d="
					M31.81,14.665c2.993,0,5.957,0,8.938,0c0,1.13,0,2.245,0,3.376c-2.98,0-5.945,0-8.938,0C31.81,16.918,31.81,15.799,31.81,14.665
					z"/>
				
					<path style="fill-rule:evenodd;clip-rule:evenodd;fill:none;stroke:#FFFFFF;stroke-width:1.1262;stroke-linecap:square;stroke-linejoin:round;stroke-miterlimit:10;" d="
					M29.178,18.042c-2.954,0-5.899,0-8.87,0c0-1.126,0-2.246,0-3.378c2.954,0,5.898,0,8.87,0
					C29.178,15.785,29.178,16.904,29.178,18.042z"/>
				<path style="fill-rule:evenodd;clip-rule:evenodd;fill:#FFFFFF;" d="M27.266,13.918c-1.598,0.019-2.917-0.596-3.95-1.817
					c-1.589-1.879-0.027-4.282,1.567-4.46c0.382-0.043,0.793-0.032,1.164,0.062c1.664,0.426,2.817,1.479,3.456,3.078
					c0.249,0.627,0.403,1.298,0.571,1.958c0.104,0.416-0.095,0.708-0.518,0.834C28.81,13.797,28.046,13.915,27.266,13.918z
					 M28.862,12.516c-0.729-1.219-1.791-1.975-3.079-2.419c-0.33-0.115-0.69-0.168-1.042-0.185c-0.487-0.02-0.805,0.387-0.737,0.88
					c0.055,0.392,0.298,0.668,0.572,0.919c0.703,0.649,1.547,1.004,2.486,1.093C27.668,12.86,28.286,12.875,28.862,12.516z"/>
				<path style="fill-rule:evenodd;clip-rule:evenodd;fill:#FFFFFF;" d="M33.561,13.998c-0.741-0.141-1.486-0.265-2.223-0.427
					c-0.451-0.104-0.607-0.411-0.524-0.878c0.213-1.208,0.613-2.34,1.38-3.307C32.977,8.402,34,7.807,35.228,7.622
					c1.354-0.203,2.634,0.769,2.938,2.176c0.194,0.901-0.055,1.686-0.645,2.361c-1.046,1.196-2.362,1.792-3.948,1.754
					C33.569,13.941,33.564,13.971,33.561,13.998z M31.947,12.529c0.289,0.097,0.496,0.196,0.715,0.233
					c1.014,0.176,1.979,0,2.879-0.5c0.482-0.268,0.924-0.598,1.208-1.093c0.172-0.299,0.211-0.609,0.024-0.917
					c-0.185-0.306-0.475-0.382-0.806-0.344c-1.178,0.134-2.167,0.681-3.026,1.469C32.588,11.701,32.307,12.104,31.947,12.529z"/>
			</g>
		</g>
		<path style="fill-rule:evenodd;clip-rule:evenodd;fill:#FFFFFF;" d="M11.012,33.276c0.467,0,0.82,0,1.291,0
			c0,0.924,0,1.808,0,2.781c11.313,0,22.509,0,33.795,0c0-10.682,0-21.366,0-32.11c-11.238,0-22.438,0-33.755,0
			c0,0.948,0,1.829,0,2.794c-0.466,0.03-0.82,0.05-1.299,0.078c0-1.106-0.105-2.161,0.053-3.174
			c0.063-0.407,0.654-0.804,1.092-1.053c0.285-0.164,0.724-0.06,1.093-0.06C23.948,2.53,34.613,2.529,45.278,2.53
			c1.96,0,2.222,0.271,2.222,2.273c0,10.231,0,20.464-0.001,30.693c-0.001,1.619-0.358,2.001-1.938,2.001
			c-10.889,0.003-21.775,0.003-32.662,0c-1.508,0-1.876-0.396-1.886-1.94C11.008,34.817,11.012,34.076,11.012,33.276z"/>
		<path style="fill-rule:evenodd;clip-rule:evenodd;fill:#FFFFFF;" d="M12.383,8.101c0.958-0.002,1.92-0.025,2.878,0.005
			c1.121,0.037,1.817,0.761,1.813,1.826c-0.004,1.018-0.661,1.765-1.725,1.789c-2.028,0.046-4.061,0.046-6.089,0.003
			c-1.117-0.023-1.795-0.81-1.759-1.873C7.532,8.853,8.23,8.143,9.283,8.108C10.315,8.076,11.35,8.101,12.383,8.101z"/>
		<path style="fill-rule:evenodd;clip-rule:evenodd;fill:#FFFFFF;" d="M12.38,31.932c-0.998-0.002-1.994,0.019-2.989-0.005
			c-1.135-0.027-1.859-0.718-1.89-1.754c-0.035-1.095,0.679-1.854,1.873-1.878c1.955-0.034,3.912-0.034,5.867,0.002
			c1.147,0.022,1.833,0.745,1.834,1.803c0.001,1.099-0.725,1.802-1.928,1.827C14.225,31.947,13.302,31.932,12.38,31.932z"/>
		<path style="fill-rule:evenodd;clip-rule:evenodd;fill:#FFFFFF;" d="M12.247,26.954c-0.407,0-0.737,0-1.15,0
			c0-4.596,0-9.179,0-13.851c0.349-0.019,0.702-0.039,1.15-0.064C12.247,17.684,12.247,22.265,12.247,26.954z"/>
	</g>
</g>
<g id="Layer_4" style="display:none;">
	<g id="lo9cI7_3_" style="display:inline;">
		<g>
			<path style="fill-rule:evenodd;clip-rule:evenodd;fill:#FFFFFF;" d="M28.396,2.5c-0.018,1.794-0.039,3.589-0.051,5.383
				c-0.008,0.943-0.003,1.887-0.003,2.865c-0.513,0-0.954,0-1.49,0c0-2.772,0-5.51,0-8.248C27.366,2.5,27.88,2.5,28.396,2.5z"/>
			<path style="fill-rule:evenodd;clip-rule:evenodd;fill:#FFFFFF;" d="M30.552,21.594c2.058,2.122,4.079,4.206,6.152,6.344
				c1.92-1.659,3.829-3.309,5.715-4.937c-0.993-2.648-0.2-4.72,1.99-5.371c1.862-0.553,3.867,0.513,4.262,2.266
				c0.561,2.485-0.822,4.243-3.718,4.714c-0.733,2.549-1.463,5.104-2.207,7.655c-0.453,1.552-0.95,3.09-1.387,4.646
				c-0.137,0.492-0.312,0.638-0.853,0.538c-6.387-1.186-12.821-1.546-19.292-0.91c-2.315,0.228-4.617,0.595-6.918,0.946
				c-0.563,0.085-0.617-0.23-0.723-0.595c-1.144-3.938-2.296-7.872-3.426-11.813c-0.109-0.382-0.255-0.515-0.667-0.553
				c-1.855-0.174-3.239-1.599-3.274-3.304c-0.041-1.97,1.158-3.408,3.095-3.715c2.509-0.396,4.617,2.24,3.714,4.689
				c-0.182,0.492-0.132,0.756,0.269,1.089c1.628,1.351,3.223,2.738,4.833,4.111c0.161,0.138,0.334,0.263,0.391,0.308
				c0.89-0.826,1.761-1.602,2.594-2.413c1.104-1.077,2.164-2.2,3.273-3.27c0.327-0.315,0.353-0.539,0.152-0.948
				c-0.884-1.808-0.177-3.885,1.571-4.742c1.737-0.854,3.844-0.166,4.701,1.58C31.413,19.156,31.307,20.391,30.552,21.594z
				 M18.887,29.796c-0.307-0.243-0.512-0.396-0.707-0.561c-1.957-1.667-3.908-3.34-5.873-4.995
				c-0.152-0.129-0.394-0.153-0.594-0.225c-0.021,0.191-0.102,0.399-0.053,0.569c1.037,3.619,2.096,7.233,3.127,10.854
				c0.121,0.426,0.333,0.447,0.689,0.384c3.37-0.61,6.769-0.941,10.189-1.029c4.774-0.122,9.518,0.182,14.221,1.041
				c0.349,0.064,0.52-0.021,0.629-0.394c1.059-3.613,2.142-7.221,3.202-10.834c0.055-0.185-0.04-0.413-0.066-0.621
				c-0.178,0.079-0.388,0.123-0.529,0.244c-1.115,0.947-2.211,1.919-3.326,2.864c-1.05,0.893-2.118,1.763-3.254,2.706
				c-0.206-0.24-0.361-0.444-0.539-0.627c-2.052-2.114-4.113-4.22-6.156-6.343c-0.271-0.281-0.479-0.354-0.858-0.183
				c-0.89,0.4-1.82,0.373-2.705-0.015c-0.369-0.161-0.554-0.074-0.8,0.186c-1.987,2.095-3.988,4.176-5.982,6.266
				C19.299,29.298,19.115,29.531,18.887,29.796z M9.792,23.168c1.013,0.016,2.109-1.071,2.109-2.091c0-1.068-0.951-2.02-2.053-2.055
				c-1.173-0.037-2.219,0.942-2.22,2.075C7.626,22.202,8.619,23.151,9.792,23.168z M27.557,21.498
				c1.227-0.003,2.055-0.847,2.065-2.104c0.009-1.142-0.916-2.07-2.059-2.068c-1.138,0.001-2.053,0.922-2.063,2.074
				C25.49,20.64,26.334,21.499,27.557,21.498z M45.452,23.055c1.127-0.001,2.043-0.905,2.048-2.02
				c0.007-1.129-0.931-2.074-2.064-2.086c-1.146-0.013-2.089,0.906-2.097,2.039C43.332,22.176,44.233,23.058,45.452,23.055z"/>
			<path style="fill-rule:evenodd;clip-rule:evenodd;fill:#FFFFFF;" d="M10.775,9.813c0.283-0.295,0.593-0.617,0.883-0.92
				c1.932,1.942,3.846,3.868,5.799,5.831c-0.298,0.243-0.654,0.532-0.99,0.805C14.63,13.685,12.713,11.761,10.775,9.813z"/>
			<path style="fill-rule:evenodd;clip-rule:evenodd;fill:#FFFFFF;" d="M43.579,8.873c0.266,0.272,0.567,0.583,0.811,0.832
				c-1.938,1.938-3.868,3.871-5.798,5.801c-0.224-0.222-0.55-0.546-0.825-0.819C39.685,12.768,41.622,10.832,43.579,8.873z"/>
		</g>
	</g>
</g>
<g id="Layer_5" style="display:none;">
	<g style="display:inline;">
		<g id="SX5NGw_3_">
			<g>
				
					<path style="fill-rule:evenodd;clip-rule:evenodd;fill:none;stroke:#FFFFFF;stroke-width:2.2271;stroke-linecap:square;stroke-linejoin:round;stroke-miterlimit:10;" d="
					M20.303,18.812c0.149-0.61,0.272-1.157,0.423-1.698c0.031-0.109,0.152-0.237,0.26-0.278c1.906-0.714,3.778-1.561,5.864-1.608
					c1.31-0.029,2.587,0.128,3.707,0.896c1.313,0.9,1.815,2.176,1.803,3.74c-0.018,1.977-0.652,3.813-1.163,5.683
					c-0.437,1.604-0.92,3.201-1.276,4.825c-0.191,0.864-0.223,1.781-0.209,2.671c0.015,0.768,0.561,1.15,1.291,1.309
					c1.163,0.253,2.258-0.008,3.342-0.388c0.088-0.03,0.177-0.051,0.354-0.099c-0.15,0.63-0.277,1.196-0.428,1.755
					c-0.024,0.091-0.152,0.187-0.252,0.22c-1.558,0.517-3.092,1.146-4.688,1.495c-1.417,0.31-2.886,0.191-4.267-0.423
					c-1.675-0.743-2.645-2.425-2.526-4.263c0.135-2.099,0.81-4.065,1.331-6.071c0.506-1.951,0.94-3.92,1.404-5.879
					c0.022-0.094,0.026-0.196,0.028-0.293c0.028-1.503-0.551-2.177-2.058-2.14c-0.864,0.021-1.724,0.295-2.584,0.456
					C20.568,18.739,20.479,18.766,20.303,18.812z"/>
				<path style="fill-rule:evenodd;clip-rule:evenodd;fill:#FFFFFF;" d="M27.51,10.321c-2.337-0.003-4.232-1.773-4.205-3.929
					c0.027-2.135,1.917-3.888,4.203-3.892c2.318-0.006,4.196,1.766,4.187,3.95C31.686,8.611,29.834,10.323,27.51,10.321z"/>
			</g>
		</g>
	</g>
</g>
<g id="Layer_6" style="display:none;">
	<g style="display:inline;">
		<g id="WvR83Z_3_">
			<g>
				
					<path style="fill-rule:evenodd;clip-rule:evenodd;fill:none;stroke:#FFFFFF;stroke-width:1.676;stroke-linecap:square;stroke-linejoin:round;stroke-miterlimit:10;" d="
					M24.142,37.5c-0.142-1.348-0.25-2.698-0.434-4.039c-0.198-1.442-1.425-1.984-2.711-1.19c-1.147,0.709-2.251,1.487-3.333,2.208
					c-1.549-1.604-3.055-3.163-4.733-4.901c0.559-0.846,1.307-1.948,2.026-3.069c0.95-1.479,0.448-2.536-1.308-2.798
					C10,23.167,10,23.167,10,19.559c0-3.112,0-3.112,3.263-3.637c2.238-0.36,2.712-1.445,1.422-3.258
					c-0.546-0.768-1.09-1.537-1.634-2.307c-0.067-0.096-0.122-0.201-0.119-0.196c1.567-1.532,3.115-3.045,4.855-4.747
					c0.826,0.573,1.952,1.382,3.105,2.15c1.369,0.912,2.3,0.546,2.633-1.056c0.272-1.311,0.461-2.638,0.694-4.007
					c2.195,0,4.299,0,6.557,0c0.263,1.298,0.533,2.601,0.792,3.906c0.323,1.623,1.394,2.057,2.758,1.098
					c1.049-0.738,2.082-1.499,3.123-2.25c1.497,1.539,2.929,3.01,4.525,4.654c-0.666,1.017-1.449,2.166-2.183,3.345
					c-0.83,1.333-0.322,2.362,1.229,2.623c1.329,0.224,2.651,0.484,3.978,0.728c0,2.125,0,4.25,0,6.375
					c-1.364,0.306-2.732,0.589-4.09,0.92c-1.517,0.371-1.896,1.398-1.001,2.696c0.754,1.093,1.546,2.162,2.183,3.048
					c-1.668,1.679-3.19,3.211-4.784,4.813c-1.023-0.683-2.123-1.449-3.258-2.161c-1.265-0.794-2.259-0.403-2.548,1.037
					c-0.275,1.379-0.434,2.779-0.643,4.17C28.619,37.5,26.38,37.5,24.142,37.5z"/>
			</g>
		</g>
		<path style="fill-rule:evenodd;clip-rule:evenodd;fill:#FFFFFF;" d="M27.541,24.747c2.731-0.016,4.748-2.07,4.731-4.82
			c-0.017-2.739-2.064-4.756-4.812-4.74c-2.73,0.016-4.748,2.07-4.73,4.82C22.745,22.747,24.792,24.765,27.541,24.747z"/>
	</g>
</g>
<g id="Layer_7" style="display:none;">
</g>
<g id="Layer_8" style="display:none;">
	<g id="FSQ8CX_3_" style="display:inline;">
		<g>
			<path style="fill:#FFFFFF;" d="M41.416,37.5c-9.281,0-18.563,0-27.845,0c0-11.666,0-23.333,0-35c6.274,0,12.549,0,18.824,0
				c2.83,2.847,5.653,5.7,8.498,8.532c0.377,0.375,0.537,0.744,0.536,1.282C41.411,20.709,41.416,29.104,41.416,37.5z M16.346,5.256
				c0,9.845,0,19.649,0,29.488c7.452,0,14.853,0,22.301,0c0-7.099,0-14.157,0-21.301c-0.296,0-0.549,0-0.802,0
				c-1.918,0-3.835,0.005-5.753-0.002c-1.201-0.004-1.626-0.431-1.633-1.646c-0.01-1.841-0.003-3.681-0.003-5.521
				c0-0.327,0-0.654,0-1.018C25.692,5.256,21.041,5.256,16.346,5.256z M33.203,10.674c1.176,0,2.278,0,3.225,0
				c-1.055-1.064-2.15-2.168-3.225-3.25C33.203,8.447,33.203,9.544,33.203,10.674z"/>
			<path style="fill-rule:evenodd;clip-rule:evenodd;fill:none;" d="M33.203,10.674c0-1.129,0-2.227,0-3.25
				c1.074,1.082,2.17,2.186,3.225,3.25C35.481,10.674,34.379,10.674,33.203,10.674z"/>
			<path style="fill-rule:evenodd;clip-rule:evenodd;fill:#FFFFFF;" d="M29.265,24.952c-1.122-1.177-2.085-2.186-3.096-3.244
				c-1.84,1.87-3.613,3.669-5.408,5.491c-0.475-0.494-0.862-0.897-1.222-1.271c2.194-2.18,4.414-4.385,6.68-6.636
				c0.914,0.937,1.904,1.947,2.824,2.889c1.325-1.322,2.563-2.56,3.816-3.809c-0.208-0.025-0.45-0.054-0.738-0.087
				c0-0.561,0-1.121,0-1.734c1.307,0,2.614,0,3.976,0c0,1.303,0,2.609,0,3.969c-0.528,0-1.059,0-1.647,0
				c-0.029-0.227-0.06-0.472-0.084-0.669C32.705,21.512,31.021,23.195,29.265,24.952z"/>
			<path style="fill-rule:evenodd;clip-rule:evenodd;fill:#FFFFFF;" d="M19.687,31.369c0-0.585,0-1.101,0-1.673
				c5.19,0,10.359,0,15.582,0c0,0.542,0,1.073,0,1.673C30.113,31.369,24.929,31.369,19.687,31.369z"/>
			<path style="fill-rule:evenodd;clip-rule:evenodd;fill:#FFFFFF;" d="M28.935,8.632c0,0.572,0,1.108,0,1.686
				c-3.076,0-6.12,0-9.217,0c0-0.556,0-1.086,0-1.686C22.75,8.632,25.81,8.632,28.935,8.632z"/>
			<path style="fill-rule:evenodd;clip-rule:evenodd;fill:#FFFFFF;" d="M19.703,14.274c0-0.556,0-1.086,0-1.667
				c3.081,0,6.125,0,9.218,0c0,0.544,0,1.077,0,1.667C25.867,14.274,22.805,14.274,19.703,14.274z"/>
		</g>
	</g>
	<path style="display:inline;fill:#F68B28;" d="M39.737,14.632c0,0.007-0.001,0.014-0.001,0.021
		c-0.006,3.27-1.258,5.501-2.351,7.081c-0.265,0.384-0.691,0.59-1.125,0.59c-0.269,0-0.539-0.078-0.776-0.242
		c-0.621-0.43-0.776-1.281-0.348-1.902c1.308-1.892,1.865-3.551,1.865-5.548c0-0.004,0.001-0.008,0.001-0.012
		c-0.004-2.512-0.989-4.872-2.777-6.647c-1.781-1.768-4.138-2.738-6.642-2.738c-0.024,0-0.048,0-0.072,0c-0.007,0-0.013,0-0.02,0
		c-2.557-0.018-4.964,0.966-6.785,2.773c-1.792,1.778-2.778,4.131-2.778,6.625c0,3.355,1.689,5.445,3.478,7.658
		c1.49,1.843,3.022,3.739,3.448,6.317h1.688c0.755,0,1.367,0.611,1.367,1.367c0,0.755-0.612,1.367-1.367,1.367h-1.572v2.306
		c0,0.616,0.492,1.118,1.097,1.118h2.795c0.605,0,1.099-0.502,1.099-1.118v-3.595c0-0.006-0.001-0.011-0.001-0.017
		c0-0.016,0.001-0.031,0.001-0.048v-0.076c0-0.013,0.001-0.025,0.002-0.038c0.028-1.529,0.454-2.993,1.302-4.471
		c0.376-0.655,1.212-0.881,1.866-0.505c0.655,0.376,0.881,1.212,0.505,1.866c-0.633,1.104-0.933,2.13-0.94,3.225v3.658
		c0,2.124-1.72,3.853-3.833,3.853h-2.795c-2.113,0-3.832-1.729-3.832-3.853v-3.611c0-2.37-1.37-4.064-2.957-6.027
		c-1.915-2.369-4.085-5.055-4.085-9.376c0-3.228,1.273-6.27,3.586-8.565C21.1,3.765,24.165,2.5,27.419,2.5c0.028,0,0.055,0,0.083,0
		s0.055,0,0.083,0c3.231,0,6.271,1.252,8.567,3.532C38.464,8.327,39.737,11.382,39.737,14.632z M43.633,13.369
		c-0.755,0-1.367,0.612-1.367,1.367s0.612,1.367,1.367,1.367S45,15.492,45,14.736S44.388,13.369,43.633,13.369z M41.924,20.752
		c-0.755,0-1.367,0.612-1.367,1.367s0.612,1.367,1.367,1.367s1.367-0.612,1.367-1.367S42.679,20.752,41.924,20.752z M41.855,8.516
		c0.755,0,1.367-0.612,1.367-1.367s-0.612-1.367-1.367-1.367s-1.367,0.612-1.367,1.367S41.101,8.516,41.855,8.516z M12.734,14.736
		c0-0.755-0.612-1.367-1.367-1.367S10,13.981,10,14.736s0.612,1.367,1.367,1.367S12.734,15.492,12.734,14.736z M13.008,20.752
		c-0.755,0-1.367,0.612-1.367,1.367s0.612,1.367,1.367,1.367s1.367-0.612,1.367-1.367S13.763,20.752,13.008,20.752z M13.076,5.781
		c-0.755,0-1.367,0.612-1.367,1.367s0.612,1.367,1.367,1.367s1.367-0.612,1.367-1.367S13.832,5.781,13.076,5.781z M27.432,23.145
		c-0.755,0-1.367,0.612-1.367,1.367s0.612,1.367,1.367,1.367c0.755,0,1.368-0.612,1.368-1.367S28.188,23.145,27.432,23.145z
		 M29.632,18.779c2.069-0.883,3.406-2.908,3.405-5.158c0-0.02-0.001-0.04-0.001-0.06c-0.033-3.063-2.534-5.543-5.604-5.543
		c-1.496,0-2.9,0.572-3.955,1.61c-1.063,1.047-1.649,2.448-1.649,3.946c0,0.755,0.612,1.367,1.367,1.367
		c0.755,0,1.367-0.612,1.367-1.367c0-1.583,1.261-2.822,2.87-2.822c1.583,0,2.87,1.288,2.87,2.87c0,0.015,0,0.029,0.001,0.043
		c-0.018,1.135-0.698,2.152-1.745,2.599c-1.514,0.646-2.493,2.141-2.493,3.807c0,0.755,0.612,1.368,1.367,1.368
		c0.755,0,1.368-0.612,1.368-1.368C28.8,19.502,29.126,18.995,29.632,18.779z"/>
</g>
<g id="Layer_10" style="display:none;">
	<g style="display:inline;">
		<g>
			<path style="fill-rule:evenodd;clip-rule:evenodd;fill:#4F4F4F;" d="M27.531,32.477c-2.6,0-5.205-0.029-7.803,0.015
				c-0.934,0.015-1.285-0.33-1.361-1.118c-0.334-3.392,0.933-6.161,4.137-8.019c3.19-1.85,6.574-1.887,9.814-0.096
				c3.246,1.794,4.598,4.522,4.337,7.926c-0.074,0.943-0.459,1.351-1.608,1.313C32.544,32.421,30.036,32.477,27.531,32.477z"/>
			<path style="fill-rule:evenodd;clip-rule:evenodd;fill:#4F4F4F;" d="M27.531,10.837c3.17,0.021,5.905,2.512,5.859,5.345
				c-0.045,2.883-2.784,5.27-5.985,5.219c-3.137-0.048-5.793-2.461-5.797-5.265C21.602,13.299,24.376,10.82,27.531,10.837z"/>
		</g>
		
			<rect x="10" y="7.5" style="fill-rule:evenodd;clip-rule:evenodd;fill:none;stroke:#4F4F4F;stroke-width:2;stroke-miterlimit:10;" width="35" height="23.486"/>
	</g>
</g>
<g id="Layer_11" style="display:none;">
	<g style="display:inline;">
		<g id="MrCBim_4_">
			<g>
				<path style="fill-rule:evenodd;clip-rule:evenodd;fill:#4F4F4F;" d="M40.197,12.019c-4.264-0.833-8.454-1.652-12.685-2.479
					c-0.604,1.604-1.196,3.176-1.787,4.749c-0.892,2.374-1.779,4.748-2.671,7.122c-0.261,0.692-0.729,0.959-1.321,0.765
					c-0.561-0.183-0.775-0.733-0.524-1.406c1.548-4.148,3.099-8.295,4.653-12.442c0.273-0.729,0.666-0.931,1.441-0.781
					c4.653,0.901,9.308,1.801,13.961,2.7c1.192,0.23,1.461,0.628,1.063,1.739c-1.833,5.128-3.666,10.258-5.543,15.372
					c-0.316,0.863-0.806,1.675-1.282,2.472c-1.523,2.549-4.667,3.274-7.194,2.172c-2.969-1.296-5.941-2.582-8.89-3.922
					c-1.219-0.553-1.997-1.528-2.334-2.814c-0.267-1.015-0.196-2.023,0.041-3.107c0.874,0.345,1.723,0.679,2.572,1.013
					c2.729,1.071,5.456,2.149,8.19,3.206c0.377,0.145,0.526,0.322,0.528,0.735c0.002,0.522,0.069,1.062,0.217,1.564
					c0.562,1.888,2.76,2.549,4.231,1.199c0.698-0.642,1.302-1.487,1.659-2.354c1.285-3.112,2.478-6.265,3.649-9.419
					c0.689-1.862,1.272-3.761,1.902-5.645C40.115,12.336,40.144,12.211,40.197,12.019z"/>
				<path style="fill-rule:evenodd;clip-rule:evenodd;fill:#4F4F4F;" d="M29.96,17.734c0.056,0.015,0.205,0.049,0.351,0.095
					c1.36,0.423,2.722,0.844,4.081,1.273c0.694,0.22,0.983,0.708,0.775,1.286c-0.191,0.537-0.709,0.75-1.378,0.538
					c-1.396-0.442-2.788-0.886-4.174-1.35c-0.546-0.183-0.757-0.585-0.653-1.106C29.044,18.047,29.421,17.739,29.96,17.734z"/>
				<path style="fill-rule:evenodd;clip-rule:evenodd;fill:#4F4F4F;" d="M28.222,21.612c0.054,0.008,0.094,0.006,0.13,0.017
					c1.563,0.492,3.133,0.964,4.685,1.492c0.473,0.161,0.626,0.604,0.506,1.081c-0.124,0.487-0.47,0.719-0.98,0.711
					c-0.098-0.002-0.198-0.005-0.288-0.034c-1.447-0.469-2.897-0.935-4.34-1.419c-0.523-0.177-0.684-0.587-0.594-1.092
					C27.425,21.888,27.784,21.693,28.222,21.612z"/>
				<path style="fill-rule:evenodd;clip-rule:evenodd;fill:#4F4F4F;" d="M36.994,15.85c0.018,0.608-0.591,1.121-1.215,0.96
					c-1.473-0.379-2.94-0.786-4.401-1.208c-0.595-0.173-0.842-0.655-0.678-1.184c0.162-0.523,0.64-0.77,1.241-0.614
					c1.419,0.365,2.833,0.739,4.248,1.117C36.668,15.049,36.942,15.36,36.994,15.85z"/>
				<path style="fill-rule:evenodd;clip-rule:evenodd;fill:#4F4F4F;" d="M28.546,12.842c0.746,0.019,1.193,0.42,1.164,1.044
					c-0.025,0.549-0.455,0.921-1.043,0.904c-0.787-0.022-1.252-0.425-1.225-1.057C27.467,13.158,27.881,12.824,28.546,12.842z"/>
				<path style="fill-rule:evenodd;clip-rule:evenodd;fill:#4F4F4F;" d="M28.296,17.876c-0.005,0.548-0.441,0.956-1.006,0.941
					c-0.742-0.019-1.229-0.414-1.236-1.003c-0.007-0.542,0.447-0.995,0.981-0.978C27.806,16.86,28.302,17.268,28.296,17.876z"/>
				<path style="fill-rule:evenodd;clip-rule:evenodd;fill:#4F4F4F;" d="M25.725,22.53c-0.735,0.006-1.29-0.438-1.278-1.024
					c0.011-0.498,0.451-0.92,0.97-0.93c0.753-0.014,1.281,0.395,1.291,0.998C26.715,22.121,26.3,22.526,25.725,22.53z"/>
			</g>
		</g>
		<g>
			<path style="fill-rule:evenodd;clip-rule:evenodd;fill:#4F4F4F;" d="M17.819,27.781c-1.5,0-3.003-0.019-4.503,0.009
				c-0.54,0.01-0.743-0.205-0.786-0.7c-0.193-2.126,0.538-3.862,2.387-5.026c1.841-1.159,3.794-1.182,5.664-0.06
				c1.874,1.125,2.654,2.834,2.503,4.968c-0.042,0.591-0.264,0.848-0.928,0.823C20.712,27.747,19.265,27.781,17.819,27.781z"/>
			<path style="fill-rule:evenodd;clip-rule:evenodd;fill:#4F4F4F;" d="M17.818,14.218c1.83,0.014,3.408,1.575,3.381,3.35
				c-0.025,1.807-1.606,3.303-3.454,3.271c-1.81-0.03-3.343-1.542-3.345-3.3C14.396,15.762,15.998,14.208,17.818,14.218z"/>
		</g>
	</g>
</g>
<g id="Layer_13" style="display:none;">
	<g id="RVAsCl_3_" style="display:inline;">
		<g>
			<path style="fill-rule:evenodd;clip-rule:evenodd;fill:#4F4F4F;" d="M27.489,7.5c6.873-0.015,12.495,5.581,12.51,12.451
				c0.018,6.932-5.594,12.56-12.504,12.549C20.604,32.49,15.009,26.907,15,20.033C14.99,13.117,20.572,7.515,27.489,7.5z
				 M26.444,15.59c-0.03-0.018-0.063-0.035-0.093-0.053c-0.067,0.088-0.125,0.186-0.203,0.263c-2.66,2.659-5.318,5.322-7.989,7.97
				c-0.224,0.222-0.22,0.378-0.098,0.637c1.959,4.146,6.283,6.505,10.868,5.884c2.914-0.396,5.248-1.816,6.983-4.178
				c1.652-2.244,2.245-4.782,1.897-7.536c-0.078-0.617-0.258-1.22-0.39-1.829c-3.039,2.981-6.031,5.918-9.025,8.856
				c0.027,0.037,0.053,0.072,0.078,0.107c0.885,0,1.77,0,2.663,0c0,0.707,0,1.386,0,2.063c-2.092,0-4.164,0-6.231,0
				c0-2.084,0-4.145,0-6.208c0.703,0,1.383,0,2.085,0c0,0.848,0,1.668,0,2.488c0.024,0.016,0.048,0.032,0.072,0.049
				c3.134-3.13,6.269-6.259,9.39-9.376c-2.682-4.538-8.425-6.496-13.421-4.119c-5.041,2.399-6.522,7.696-5.779,10.949
				c2.4-2.397,4.846-4.839,7.276-7.268c-0.706,0-1.468,0-2.227,0c0-0.709,0-1.388,0-2.065c2.09,0,4.154,0,6.224,0
				c0,2.088,0,4.156,0,6.225c-0.704,0-1.383,0-2.083,0C26.444,17.479,26.444,16.535,26.444,15.59z"/>
		</g>
	</g>
</g>
<g id="Layer_14" style="display:none;">
	<g style="display:inline;">
		<path style="fill:#FFFFFF;" d="M19.841,11.257c-0.343-0.985-0.667-1.913-0.989-2.843c-0.184-0.535-0.593-0.875-1.242-0.89
			c-1.288-0.03-2.58-0.036-3.867,0.002c-0.778,0.021-1.279,0.537-1.242,1.15c0.038,0.596,0.539,0.993,1.314,1.01
			c0.682,0.014,1.371,0.05,2.046-0.01c0.647-0.058,0.861,0.181,1.027,0.668c1.256,3.681,2.522,7.361,3.832,11.027
			c0.365,1.019,0.604,1.941,0.092,3.028c-0.588,1.249,0.198,2.402,1.646,2.753c0.618,0.149,1.299,0.203,1.943,0.171
			c3.077-0.154,6.148-0.376,9.225-0.526c1.766-0.086,3.536-0.081,5.304-0.12c0.623-0.015,1.015-0.277,1.03-0.825
			c0.017-0.546-0.34-0.835-0.974-0.867c-0.328-0.017-0.658-0.05-0.984-0.035c-3.835,0.171-7.669,0.356-11.504,0.523
			c-1.103,0.048-2.208,0.072-3.311,0.047c-0.179-0.004-0.507-0.345-0.482-0.495c0.032-0.201,0.321-0.504,0.538-0.53
			c2.125-0.253,4.258-0.453,6.388-0.676c3.155-0.329,6.312-0.668,9.47-0.989c0.793-0.079,1.203-0.416,1.351-1.089
			c0.636-2.903,1.301-5.8,1.953-8.7c0.308-1.363-0.099-1.784-1.719-1.784c-6.094,0-12.186,0-18.28,0
			C21.574,11.257,20.742,11.257,19.841,11.257z M36.907,32.5c1.347,0.006,2.511-0.968,2.548-2.131
			c0.036-1.171-1.146-2.202-2.532-2.206c-1.35-0.006-2.514,0.967-2.546,2.127C34.343,31.459,35.529,32.494,36.907,32.5z
			 M25.135,30.354c0.015-1.209-1.128-2.202-2.523-2.191c-1.36,0.009-2.503,0.982-2.516,2.145c-0.014,1.185,1.156,2.196,2.536,2.192
			C24,32.496,25.121,31.534,25.135,30.354z"/>
		<path style="fill-rule:evenodd;clip-rule:evenodd;fill:#4F4F4F;" d="M19.841,11.257c0.901,0,1.733,0,2.565,0
			c6.094,0,12.186,0,18.28,0c1.62,0,2.026,0.421,1.719,1.784c-0.652,2.899-1.317,5.797-1.953,8.7
			c-0.147,0.673-0.558,1.01-1.351,1.089c-3.158,0.321-6.314,0.66-9.47,0.989c-2.13,0.223-4.263,0.423-6.388,0.676
			c-0.217,0.026-0.506,0.329-0.538,0.53c-0.024,0.15,0.303,0.491,0.482,0.495c1.103,0.025,2.208,0.001,3.311-0.047
			c3.835-0.167,7.669-0.353,11.504-0.523c0.326-0.015,0.656,0.019,0.984,0.035c0.634,0.032,0.99,0.321,0.974,0.867
			c-0.016,0.548-0.407,0.811-1.03,0.825c-1.768,0.039-3.538,0.034-5.304,0.12c-3.077,0.15-6.148,0.372-9.225,0.526
			c-0.644,0.032-1.325-0.021-1.943-0.171c-1.448-0.351-2.234-1.504-1.646-2.753c0.512-1.087,0.272-2.01-0.092-3.028
			c-1.31-3.667-2.576-7.347-3.832-11.027c-0.166-0.487-0.38-0.727-1.027-0.668c-0.675,0.06-1.364,0.024-2.046,0.01
			c-0.775-0.017-1.276-0.414-1.314-1.01c-0.037-0.613,0.463-1.128,1.242-1.15c1.288-0.038,2.579-0.032,3.867-0.002
			c0.648,0.014,1.058,0.355,1.242,0.89C19.174,9.344,19.498,10.272,19.841,11.257z M33.108,17.931c-1.74,0-3.394,0-5.079,0
			c0,1.294,0,2.55,0,3.86c1.727-0.18,3.394-0.354,5.079-0.53C33.108,20.126,33.108,19.054,33.108,17.931z M26.745,13.473
			c-2.063,0-4.046,0-6.13,0c0.378,1.077,0.732,2.102,1.105,3.124c0.035,0.097,0.183,0.233,0.28,0.234
			c1.577,0.015,3.154,0.01,4.745,0.01C26.745,15.675,26.745,14.603,26.745,13.473z M28.004,16.801c1.745,0,3.416,0,5.087,0
			c0-1.136,0-2.224,0-3.313c-1.72,0-3.392,0-5.087,0C28.004,14.606,28.004,15.678,28.004,16.801z M39.714,13.487
			c-1.828,0-3.576,0-5.326,0c0,1.133,0,2.22,0,3.36c1.428,0,2.809,0.007,4.189-0.01c0.154-0.002,0.417-0.131,0.442-0.235
			C39.271,15.578,39.483,14.545,39.714,13.487z M23.666,22.234c1.056-0.108,2.063-0.213,3.041-0.313c0-1.389,0-2.688,0-3.975
			c-1.531,0-2.998,0-4.536,0C22.678,19.402,23.163,20.793,23.666,22.234z M34.38,17.918c0,1.094,0,2.123,0,3.216
			c1.166-0.123,2.286-0.234,3.401-0.369c0.133-0.016,0.325-0.152,0.352-0.258c0.211-0.849,0.388-1.704,0.582-2.589
			C37.221,17.918,35.839,17.918,34.38,17.918z"/>
		<path style="fill-rule:evenodd;clip-rule:evenodd;fill:#4F4F4F;" d="M36.907,32.5c-1.378-0.006-2.564-1.041-2.53-2.21
			c0.032-1.16,1.196-2.133,2.546-2.127c1.386,0.004,2.568,1.035,2.532,2.206C39.418,31.532,38.254,32.506,36.907,32.5z"/>
		<path style="fill-rule:evenodd;clip-rule:evenodd;fill:#4F4F4F;" d="M25.135,30.354c-0.014,1.18-1.136,2.142-2.503,2.146
			c-1.38,0.004-2.55-1.008-2.536-2.192c0.013-1.162,1.156-2.136,2.516-2.145C24.007,28.152,25.15,29.146,25.135,30.354z"/>
	</g>
</g>
<g id="Layer_15" style="display:none;">
	<g id="JcSxya_3_" style="display:inline;">
		<g>
			<path style="fill-rule:evenodd;clip-rule:evenodd;fill:#4F4F4F;" d="M27.513,32.5c-3.781,0-7.562,0.001-11.343-0.002
				c-2.371-0.002-3.668-1.38-3.668-3.898c-0.003-5.736-0.003-11.473,0-17.209c0.001-2.504,1.31-3.888,3.68-3.889
				c7.537-0.002,15.073-0.001,22.61,0c2.417,0.001,3.706,1.374,3.706,3.942c0.002,5.711,0.002,11.419,0,17.128
				c0,2.566-1.287,3.926-3.718,3.927C35.024,32.501,31.269,32.5,27.513,32.5z M36.152,30.256c1.002,0,1.966,0.014,2.928-0.004
				c0.89-0.016,1.28-0.442,1.281-1.407c0.005-5.896,0.005-11.791-0.001-17.684c-0.001-0.998-0.394-1.396-1.356-1.407
				c-0.811-0.008-1.623-0.001-2.435-0.001c-6.822,0-13.644,0-20.465,0.001c-1.031,0-1.46,0.357-1.461,1.292
				c-0.011,5.975-0.01,11.95-0.001,17.925c0.001,0.813,0.412,1.257,1.17,1.277c1.012,0.026,2.026,0.006,3.026,0.006
				c0.615-1.802,1.167-2.32,2.378-2.264c1.048,0.048,1.671,0.714,2.065,2.218c2.823,0,5.652,0,8.472,0
				c0.285-1.418,0.96-2.156,1.999-2.217C34.985,27.92,35.603,28.489,36.152,30.256z"/>
			<path style="fill-rule:evenodd;clip-rule:evenodd;fill:#4F4F4F;" d="M26.329,19.737c2.012,1.386,3.214,3.218,3.277,5.911
				c-0.621,0-1.201,0.058-1.759-0.034c-0.168-0.027-0.35-0.448-0.4-0.714c-0.329-1.729-1.254-2.928-2.812-3.504
				c-1.586-0.586-3.05-0.254-4.317,0.927c-0.921,0.858-1.297,2.014-1.452,3.286c-0.69,0-1.336,0-2.05,0
				c0.093-2.622,1.254-4.5,3.259-5.842c-1.593-2.739-1.421-5.066,0.476-6.706c1.619-1.399,4.02-1.301,5.569,0.211
				C27.563,14.679,28.159,17.399,26.329,19.737z M25.378,16.599c0.005-1.218-0.963-2.273-2.118-2.305
				c-1.169-0.032-2.205,1.041-2.209,2.292c-0.004,1.215,0.965,2.267,2.121,2.3C24.35,18.919,25.373,17.86,25.378,16.599z"/>
			<path style="fill-rule:evenodd;clip-rule:evenodd;fill:#4F4F4F;" d="M38.164,16.681c0,0.716,0,1.376,0,2.093
				c-2.094,0-4.16,0-6.288,0c0-0.67,0-1.351,0-2.093C33.942,16.681,36.006,16.681,38.164,16.681z"/>
			<path style="fill-rule:evenodd;clip-rule:evenodd;fill:#4F4F4F;" d="M38.164,21.228c0,0.72,0,1.379,0,2.095
				c-2.103,0-4.168,0-6.292,0c0-0.679,0-1.361,0-2.095C33.949,21.228,36.016,21.228,38.164,21.228z"/>
		</g>
	</g>
</g>
<g id="Layer_16">
	<g>
		<g>
			<g>
				<path style="fill:#4F4F4F;" d="M31.914,11.024c0,0-1.327-0.597-1.327,0.798c0,1.396,1.315,2.332,1.332,2.329
					c2.321,1.516,3.854,4.136,3.854,7.115c0,4.616-3.685,8.372-8.273,8.488c-4.589-0.116-8.274-3.872-8.274-8.488
					c0-2.979,1.535-5.6,3.856-7.115c0.017,0.003,1.332-0.933,1.332-2.329c0-1.395-1.327-0.798-1.327-0.798
					c-3.896,1.764-6.607,5.686-6.607,10.242c0,6.134,4.915,11.119,11.021,11.234c6.106-0.115,11.021-5.101,11.021-11.234
					C38.521,16.709,35.811,12.788,31.914,11.024z"/>
				<path style="fill:#4F4F4F;" d="M27.577,7.5c-1.235,0-1.621,0.904-1.621,1.258v5.534v5.534c0,0.354,0.386,1.258,1.621,1.258
					c1.235,0,1.467-0.904,1.467-1.258v-5.534V8.758C29.044,8.404,28.813,7.5,27.577,7.5z"/>
			</g>
		</g>
	</g>
</g>
</svg>
